<?xml version="1.0" encoding="UTF-8" standalone="no"?><svg xmlns="http://www.w3.org/2000/svg" xmlns:xlink="http://www.w3.org/1999/xlink" contentScriptType="application/ecmascript" contentStyleType="text/css" height="173px" preserveAspectRatio="none" style="width:257px;height:173px;" version="1.1" viewBox="0 0 257 173" width="257px" zoomAndPan="magnify"><defs><filter height="300%" id="f6jrfqvs2pt7p" width="300%" x="-1" y="-1"><feGaussianBlur result="blurOut" stdDeviation="2.0"/><feColorMatrix in="blurOut" result="blurOut2" type="matrix" values="0 0 0 0 0 0 0 0 0 0 0 0 0 0 0 0 0 0 .4 0"/><feOffset dx="4.0" dy="4.0" in="blurOut2" result="blurOut3"/><feBlend in="SourceGraphic" in2="blurOut3" mode="normal"/></filter></defs><g><!--class Chef--><rect fill="#FEFECE" filter="url(#f6jrfqvs2pt7p)" height="48" id="Chef" style="stroke: #A80036; stroke-width: 1.5;" width="58" x="99.5" y="8"/><ellipse cx="114.5" cy="24" fill="#B4A7E5" rx="11" ry="11" style="stroke: #A80036; stroke-width: 1.0;"/><path d="M110.4277,19.7651 L110.4277,17.6069 L117.8071,17.6069 L117.8071,19.7651 L115.3418,19.7651 L115.3418,27.8418 L117.8071,27.8418 L117.8071,30 L110.4277,30 L110.4277,27.8418 L112.8931,27.8418 L112.8931,19.7651 Z "/><text fill="#000000" font-family="sans-serif" font-size="12" font-style="italic" lengthAdjust="spacingAndGlyphs" textLength="26" x="128.5" y="28.5352">Chef</text><line style="stroke: #A80036; stroke-width: 1.5;" x1="100.5" x2="156.5" y1="40" y2="40"/><line style="stroke: #A80036; stroke-width: 1.5;" x1="100.5" x2="156.5" y1="48" y2="48"/><!--class Boost--><rect fill="#FEFECE" filter="url(#f6jrfqvs2pt7p)" height="48" id="Boost" style="stroke: #A80036; stroke-width: 1.5;" width="63" x="6" y="116"/><ellipse cx="21" cy="132" fill="#ADD1B2" rx="11" ry="11" style="stroke: #A80036; stroke-width: 1.0;"/><path d="M23.9731,137.6431 Q23.3921,137.9419 22.7529,138.0913 Q22.1138,138.2407 21.4082,138.2407 Q18.9014,138.2407 17.5815,136.5889 Q16.2617,134.937 16.2617,131.8159 Q16.2617,128.6865 17.5815,127.0347 Q18.9014,125.3828 21.4082,125.3828 Q22.1138,125.3828 22.7612,125.5322 Q23.4087,125.6816 23.9731,125.9805 L23.9731,128.7031 Q23.3423,128.1221 22.7488,127.8523 Q22.1553,127.5825 21.5244,127.5825 Q20.1797,127.5825 19.4949,128.6492 Q18.8101,129.7158 18.8101,131.8159 Q18.8101,133.9077 19.4949,134.9744 Q20.1797,136.041 21.5244,136.041 Q22.1553,136.041 22.7488,135.7712 Q23.3423,135.5015 23.9731,134.9204 Z "/><text fill="#000000" font-family="sans-serif" font-size="12" lengthAdjust="spacingAndGlyphs" textLength="31" x="35" y="136.5352">Boost</text><line style="stroke: #A80036; stroke-width: 1.5;" x1="7" x2="68" y1="148" y2="148"/><line style="stroke: #A80036; stroke-width: 1.5;" x1="7" x2="68" y1="156" y2="156"/><!--class Fry--><rect fill="#FEFECE" filter="url(#f6jrfqvs2pt7p)" height="48" id="Fry" style="stroke: #A80036; stroke-width: 1.5;" width="49" x="104" y="116"/><ellipse cx="119" cy="132" fill="#ADD1B2" rx="11" ry="11" style="stroke: #A80036; stroke-width: 1.0;"/><path d="M121.9731,137.6431 Q121.3921,137.9419 120.7529,138.0913 Q120.1138,138.2407 119.4082,138.2407 Q116.9014,138.2407 115.5815,136.5889 Q114.2617,134.937 114.2617,131.8159 Q114.2617,128.6865 115.5815,127.0347 Q116.9014,125.3828 119.4082,125.3828 Q120.1138,125.3828 120.7612,125.5322 Q121.4087,125.6816 121.9731,125.9805 L121.9731,128.7031 Q121.3423,128.1221 120.7488,127.8523 Q120.1553,127.5825 119.5244,127.5825 Q118.1797,127.5825 117.4949,128.6492 Q116.8101,129.7158 116.8101,131.8159 Q116.8101,133.9077 117.4949,134.9744 Q118.1797,136.041 119.5244,136.041 Q120.1553,136.041 120.7488,135.7712 Q121.3423,135.5015 121.9731,134.9204 Z "/><text fill="#000000" font-family="sans-serif" font-size="12" lengthAdjust="spacingAndGlyphs" textLength="17" x="133" y="136.5352">Fry</text><line style="stroke: #A80036; stroke-width: 1.5;" x1="105" x2="152" y1="148" y2="148"/><line style="stroke: #A80036; stroke-width: 1.5;" x1="105" x2="152" y1="156" y2="156"/><!--class Bake--><rect fill="#FEFECE" filter="url(#f6jrfqvs2pt7p)" height="48" id="Bake" style="stroke: #A80036; stroke-width: 1.5;" width="60" x="188.5" y="116"/><ellipse cx="203.5" cy="132" fill="#ADD1B2" rx="11" ry="11" style="stroke: #A80036; stroke-width: 1.0;"/><path d="M206.4731,137.6431 Q205.8921,137.9419 205.2529,138.0913 Q204.6138,138.2407 203.9082,138.2407 Q201.4014,138.2407 200.0815,136.5889 Q198.7617,134.937 198.7617,131.8159 Q198.7617,128.6865 200.0815,127.0347 Q201.4014,125.3828 203.9082,125.3828 Q204.6138,125.3828 205.2612,125.5322 Q205.9087,125.6816 206.4731,125.9805 L206.4731,128.7031 Q205.8423,128.1221 205.2488,127.8523 Q204.6553,127.5825 204.0244,127.5825 Q202.6797,127.5825 201.9949,128.6492 Q201.3101,129.7158 201.3101,131.8159 Q201.3101,133.9077 201.9949,134.9744 Q202.6797,136.041 204.0244,136.041 Q204.6553,136.041 205.2488,135.7712 Q205.8423,135.5015 206.4731,134.9204 Z "/><text fill="#000000" font-family="sans-serif" font-size="12" lengthAdjust="spacingAndGlyphs" textLength="28" x="217.5" y="136.5352">Bake</text><line style="stroke: #A80036; stroke-width: 1.5;" x1="189.5" x2="247.5" y1="148" y2="148"/><line style="stroke: #A80036; stroke-width: 1.5;" x1="189.5" x2="247.5" y1="156" y2="156"/><!--link Chef to Boost--><path d="M94.8159,71.9767 C82.4038,86.7075 68.7313,102.9342 57.854,115.8436 " fill="none" id="Chef-Boost" style="stroke: #A80036; stroke-width: 1.0;"/><polygon fill="none" points="89.8376,67.0214,108.0778,56.2373,100.5438,76.0424,89.8376,67.0214" style="stroke: #A80036; stroke-width: 1.0;"/><!--link Chef to Fry--><path d="M128.5,76.2911 C128.5,89.8171 128.5,104.1835 128.5,115.8436 " fill="none" id="Chef-Fry" style="stroke: #A80036; stroke-width: 1.0;"/><polygon fill="none" points="121.5001,76.2373,128.5,56.2373,135.5001,76.2373,121.5001,76.2373" style="stroke: #A80036; stroke-width: 1.0;"/><!--link Chef to Bake--><path d="M161.8139,71.9767 C174.0896,86.7075 187.6119,102.9342 198.3697,115.8436 " fill="none" id="Chef-Bake" style="stroke: #A80036; stroke-width: 1.0;"/><polygon fill="none" points="156.1239,76.0831,148.6978,56.2373,166.879,67.1205,156.1239,76.0831" style="stroke: #A80036; stroke-width: 1.0;"/><!--
@startuml

Interface Chef

Chef <|- - Boost
Chef <|- - Fry
Chef <|- - Bake

@enduml

PlantUML version 1.2017.13(Wed May 10 17:52:33 BST 2017)
(GPL source distribution)
Java Runtime: Java(TM) SE Runtime Environment
JVM: Java HotSpot(TM) 64-Bit Server VM
Java Version: 1.8.0_131-b11
Operating System: Mac OS X
OS Version: 10.11.6
Default Encoding: UTF-8
Language: en
Country: US
--></g></svg>