<?xml version="1.0" encoding="UTF-8" standalone="no"?><svg xmlns="http://www.w3.org/2000/svg" xmlns:xlink="http://www.w3.org/1999/xlink" contentScriptType="application/ecmascript" contentStyleType="text/css" height="477px" preserveAspectRatio="none" style="width:524px;height:477px;" version="1.1" viewBox="0 0 524 477" width="524px" zoomAndPan="magnify"><defs><filter height="300%" id="flpe7uxfkej3e" width="300%" x="-1" y="-1"><feGaussianBlur result="blurOut" stdDeviation="2.0"/><feColorMatrix in="blurOut" result="blurOut2" type="matrix" values="0 0 0 0 0 0 0 0 0 0 0 0 0 0 0 0 0 0 .4 0"/><feOffset dx="4.0" dy="4.0" in="blurOut2" result="blurOut3"/><feBlend in="SourceGraphic" in2="blurOut3" mode="normal"/></filter></defs><g><!--cluster lml--><polygon fill="#FFFFFF" filter="url(#flpe7uxfkej3e)" points="259,16,289,16,296,38.4883,517,38.4883,517,348,259,348,259,16" style="stroke: #000000; stroke-width: 2.0;"/><line style="stroke: #000000; stroke-width: 2.0;" x1="259" x2="296" y1="38.4883" y2="38.4883"/><text fill="#000000" font-family="sans-serif" font-size="14" font-weight="bold" lengthAdjust="spacingAndGlyphs" textLength="24" x="263" y="31.5352">lml</text><!--cluster robotchef--><polygon fill="#FFFFFF" filter="url(#flpe7uxfkej3e)" points="14,130,89,130,96,152.4883,251,152.4883,251,470,14,470,14,130" style="stroke: #000000; stroke-width: 2.0;"/><line style="stroke: #000000; stroke-width: 2.0;" x1="14" x2="96" y1="152.4883" y2="152.4883"/><text fill="#000000" font-family="sans-serif" font-size="14" font-weight="bold" lengthAdjust="spacingAndGlyphs" textLength="69" x="18" y="145.5352">robotchef</text><!--cluster robotchef.robot_cuisine--><polygon fill="#FFFFFF" filter="url(#flpe7uxfkej3e)" points="40,379,215,379,222,401.4883,225,401.4883,225,462,40,462,40,379" style="stroke: #000000; stroke-width: 2.0;"/><line style="stroke: #000000; stroke-width: 2.0;" x1="40" x2="222" y1="401.4883" y2="401.4883"/><text fill="#000000" font-family="sans-serif" font-size="14" font-weight="bold" lengthAdjust="spacingAndGlyphs" textLength="169" x="44" y="394.5352">robotchef.robot_cuisine</text><!--cluster robotchef_britishcuisine--><polygon fill="#FFFFFF" filter="url(#flpe7uxfkej3e)" points="259,379,440,379,447,401.4883,450,401.4883,450,462,259,462,259,379" style="stroke: #000000; stroke-width: 2.0;"/><line style="stroke: #000000; stroke-width: 2.0;" x1="259" x2="447" y1="401.4883" y2="401.4883"/><text fill="#000000" font-family="sans-serif" font-size="14" font-weight="bold" lengthAdjust="spacingAndGlyphs" textLength="175" x="263" y="394.5352">robotchef_britishcuisine</text><!--class PluginManager--><rect fill="#FEFECE" filter="url(#flpe7uxfkej3e)" height="48" id="PluginManager" style="stroke: #A80036; stroke-width: 1.5;" width="116" x="267" y="43"/><ellipse cx="282" cy="59" fill="#ADD1B2" rx="11" ry="11" style="stroke: #A80036; stroke-width: 1.0;"/><path d="M284.9731,64.6431 Q284.3921,64.9419 283.7529,65.0913 Q283.1138,65.2407 282.4082,65.2407 Q279.9014,65.2407 278.5815,63.5889 Q277.2617,61.937 277.2617,58.8159 Q277.2617,55.6865 278.5815,54.0347 Q279.9014,52.3828 282.4082,52.3828 Q283.1138,52.3828 283.7612,52.5322 Q284.4087,52.6816 284.9731,52.9805 L284.9731,55.7031 Q284.3423,55.1221 283.7488,54.8523 Q283.1553,54.5825 282.5244,54.5825 Q281.1797,54.5825 280.4949,55.6492 Q279.8101,56.7158 279.8101,58.8159 Q279.8101,60.9077 280.4949,61.9744 Q281.1797,63.041 282.5244,63.041 Q283.1553,63.041 283.7488,62.7712 Q284.3423,62.5015 284.9731,61.9204 Z "/><text fill="#000000" font-family="sans-serif" font-size="12" lengthAdjust="spacingAndGlyphs" textLength="84" x="296" y="63.5352">PluginManager</text><line style="stroke: #A80036; stroke-width: 1.5;" x1="268" x2="382" y1="75" y2="75"/><line style="stroke: #A80036; stroke-width: 1.5;" x1="268" x2="382" y1="83" y2="83"/><!--class PluginInfoChain--><rect fill="#FEFECE" filter="url(#flpe7uxfkej3e)" height="48" id="PluginInfoChain" style="stroke: #A80036; stroke-width: 1.5;" width="119" x="267.5" y="292"/><ellipse cx="282.5" cy="308" fill="#ADD1B2" rx="11" ry="11" style="stroke: #A80036; stroke-width: 1.0;"/><path d="M285.4731,313.6431 Q284.8921,313.9419 284.2529,314.0913 Q283.6138,314.2407 282.9082,314.2407 Q280.4014,314.2407 279.0815,312.5889 Q277.7617,310.937 277.7617,307.8159 Q277.7617,304.6865 279.0815,303.0347 Q280.4014,301.3828 282.9082,301.3828 Q283.6138,301.3828 284.2612,301.5322 Q284.9087,301.6816 285.4731,301.9805 L285.4731,304.7031 Q284.8423,304.1221 284.2488,303.8523 Q283.6553,303.5825 283.0244,303.5825 Q281.6797,303.5825 280.9949,304.6492 Q280.3101,305.7158 280.3101,307.8159 Q280.3101,309.9077 280.9949,310.9744 Q281.6797,312.041 283.0244,312.041 Q283.6553,312.041 284.2488,311.7712 Q284.8423,311.5015 285.4731,310.9204 Z "/><text fill="#000000" font-family="sans-serif" font-size="12" lengthAdjust="spacingAndGlyphs" textLength="87" x="296.5" y="312.5352">PluginInfoChain</text><line style="stroke: #A80036; stroke-width: 1.5;" x1="268.5" x2="385.5" y1="324" y2="324"/><line style="stroke: #A80036; stroke-width: 1.5;" x1="268.5" x2="385.5" y1="332" y2="332"/><!--class PluginInfo--><rect fill="#FEFECE" filter="url(#flpe7uxfkej3e)" height="48" id="PluginInfo" style="stroke: #A80036; stroke-width: 1.5;" width="87" x="421.5" y="292"/><ellipse cx="436.5" cy="308" fill="#ADD1B2" rx="11" ry="11" style="stroke: #A80036; stroke-width: 1.0;"/><path d="M439.4731,313.6431 Q438.8921,313.9419 438.2529,314.0913 Q437.6138,314.2407 436.9082,314.2407 Q434.4014,314.2407 433.0815,312.5889 Q431.7617,310.937 431.7617,307.8159 Q431.7617,304.6865 433.0815,303.0347 Q434.4014,301.3828 436.9082,301.3828 Q437.6138,301.3828 438.2612,301.5322 Q438.9087,301.6816 439.4731,301.9805 L439.4731,304.7031 Q438.8423,304.1221 438.2488,303.8523 Q437.6553,303.5825 437.0244,303.5825 Q435.6797,303.5825 434.9949,304.6492 Q434.3101,305.7158 434.3101,307.8159 Q434.3101,309.9077 434.9949,310.9744 Q435.6797,312.041 437.0244,312.041 Q437.6553,312.041 438.2488,311.7712 Q438.8423,311.5015 439.4731,310.9204 Z "/><text fill="#000000" font-family="sans-serif" font-size="12" lengthAdjust="spacingAndGlyphs" textLength="55" x="450.5" y="312.5352">PluginInfo</text><line style="stroke: #A80036; stroke-width: 1.5;" x1="422.5" x2="507.5" y1="324" y2="324"/><line style="stroke: #A80036; stroke-width: 1.5;" x1="422.5" x2="507.5" y1="332" y2="332"/><!--class CuisineManager--><rect fill="#FEFECE" filter="url(#flpe7uxfkej3e)" height="73.9102" id="CuisineManager" style="stroke: #A80036; stroke-width: 1.5;" width="123" x="119.5" y="157"/><ellipse cx="134.5" cy="173" fill="#ADD1B2" rx="11" ry="11" style="stroke: #A80036; stroke-width: 1.0;"/><path d="M137.4731,178.6431 Q136.8921,178.9419 136.2529,179.0913 Q135.6138,179.2407 134.9082,179.2407 Q132.4014,179.2407 131.0815,177.5889 Q129.7617,175.937 129.7617,172.8159 Q129.7617,169.6865 131.0815,168.0347 Q132.4014,166.3828 134.9082,166.3828 Q135.6138,166.3828 136.2612,166.5322 Q136.9087,166.6816 137.4731,166.9805 L137.4731,169.7031 Q136.8423,169.1221 136.2488,168.8523 Q135.6553,168.5825 135.0244,168.5825 Q133.6797,168.5825 132.9949,169.6492 Q132.3101,170.7158 132.3101,172.8159 Q132.3101,174.9077 132.9949,175.9744 Q133.6797,177.041 135.0244,177.041 Q135.6553,177.041 136.2488,176.7712 Q136.8423,176.5015 137.4731,175.9204 Z "/><text fill="#000000" font-family="sans-serif" font-size="12" lengthAdjust="spacingAndGlyphs" textLength="91" x="148.5" y="177.5352">CuisineManager</text><line style="stroke: #A80036; stroke-width: 1.5;" x1="120.5" x2="241.5" y1="189" y2="189"/><line style="stroke: #A80036; stroke-width: 1.5;" x1="120.5" x2="241.5" y1="197" y2="197"/><ellipse cx="130.5" cy="208.9775" fill="#84BE84" rx="3" ry="3" style="stroke: #038048; stroke-width: 1.0;"/><text fill="#000000" font-family="sans-serif" font-size="11" lengthAdjust="spacingAndGlyphs" textLength="77" x="139.5" y="211.6348">get_a_plugin()</text><ellipse cx="130.5" cy="221.9326" fill="#84BE84" rx="3" ry="3" style="stroke: #038048; stroke-width: 1.0;"/><text fill="#000000" font-family="sans-serif" font-size="11" lengthAdjust="spacingAndGlyphs" textLength="93" x="139.5" y="224.5898">raise_exception()</text><!--class Chef--><rect fill="#FEFECE" filter="url(#flpe7uxfkej3e)" height="60.9551" id="Chef" style="stroke: #A80036; stroke-width: 1.5;" width="62" x="22" y="163.5"/><ellipse cx="38.8" cy="179.5" fill="#ADD1B2" rx="11" ry="11" style="stroke: #A80036; stroke-width: 1.0;"/><path d="M41.7731,185.1431 Q41.1921,185.4419 40.5529,185.5913 Q39.9138,185.7407 39.2082,185.7407 Q36.7014,185.7407 35.3815,184.0889 Q34.0617,182.437 34.0617,179.3159 Q34.0617,176.1865 35.3815,174.5347 Q36.7014,172.8828 39.2082,172.8828 Q39.9138,172.8828 40.5612,173.0322 Q41.2087,173.1816 41.7731,173.4805 L41.7731,176.2031 Q41.1423,175.6221 40.5488,175.3523 Q39.9553,175.0825 39.3244,175.0825 Q37.9797,175.0825 37.2949,176.1492 Q36.6101,177.2158 36.6101,179.3159 Q36.6101,181.4077 37.2949,182.4744 Q37.9797,183.541 39.3244,183.541 Q39.9553,183.541 40.5488,183.2712 Q41.1423,183.0015 41.7731,182.4204 Z "/><text fill="#000000" font-family="sans-serif" font-size="12" lengthAdjust="spacingAndGlyphs" textLength="26" x="53.2" y="184.0352">Chef</text><line style="stroke: #A80036; stroke-width: 1.5;" x1="23" x2="83" y1="195.5" y2="195.5"/><line style="stroke: #A80036; stroke-width: 1.5;" x1="23" x2="83" y1="203.5" y2="203.5"/><ellipse cx="33" cy="215.4775" fill="#84BE84" rx="3" ry="3" style="stroke: #038048; stroke-width: 1.0;"/><text fill="#000000" font-family="sans-serif" font-size="11" lengthAdjust="spacingAndGlyphs" textLength="36" x="42" y="218.1348">make()</text><!--class Boost--><rect fill="#FEFECE" filter="url(#flpe7uxfkej3e)" height="48" id="Boost" style="stroke: #A80036; stroke-width: 1.5;" width="63" x="91.5" y="406"/><ellipse cx="106.5" cy="422" fill="#ADD1B2" rx="11" ry="11" style="stroke: #A80036; stroke-width: 1.0;"/><path d="M109.4731,427.6431 Q108.8921,427.9419 108.2529,428.0913 Q107.6138,428.2407 106.9082,428.2407 Q104.4014,428.2407 103.0815,426.5889 Q101.7617,424.937 101.7617,421.8159 Q101.7617,418.6865 103.0815,417.0347 Q104.4014,415.3828 106.9082,415.3828 Q107.6138,415.3828 108.2612,415.5322 Q108.9087,415.6816 109.4731,415.9805 L109.4731,418.7031 Q108.8423,418.1221 108.2488,417.8523 Q107.6553,417.5825 107.0244,417.5825 Q105.6797,417.5825 104.9949,418.6492 Q104.3101,419.7158 104.3101,421.8159 Q104.3101,423.9077 104.9949,424.9744 Q105.6797,426.041 107.0244,426.041 Q107.6553,426.041 108.2488,425.7712 Q108.8423,425.5015 109.4731,424.9204 Z "/><text fill="#000000" font-family="sans-serif" font-size="12" lengthAdjust="spacingAndGlyphs" textLength="31" x="120.5" y="426.5352">Boost</text><line style="stroke: #A80036; stroke-width: 1.5;" x1="92.5" x2="153.5" y1="438" y2="438"/><line style="stroke: #A80036; stroke-width: 1.5;" x1="92.5" x2="153.5" y1="446" y2="446"/><!--class Fry--><rect fill="#FEFECE" filter="url(#flpe7uxfkej3e)" height="48" id="Fry" style="stroke: #A80036; stroke-width: 1.5;" width="49" x="267.5" y="406"/><ellipse cx="282.5" cy="422" fill="#ADD1B2" rx="11" ry="11" style="stroke: #A80036; stroke-width: 1.0;"/><path d="M285.4731,427.6431 Q284.8921,427.9419 284.2529,428.0913 Q283.6138,428.2407 282.9082,428.2407 Q280.4014,428.2407 279.0815,426.5889 Q277.7617,424.937 277.7617,421.8159 Q277.7617,418.6865 279.0815,417.0347 Q280.4014,415.3828 282.9082,415.3828 Q283.6138,415.3828 284.2612,415.5322 Q284.9087,415.6816 285.4731,415.9805 L285.4731,418.7031 Q284.8423,418.1221 284.2488,417.8523 Q283.6553,417.5825 283.0244,417.5825 Q281.6797,417.5825 280.9949,418.6492 Q280.3101,419.7158 280.3101,421.8159 Q280.3101,423.9077 280.9949,424.9744 Q281.6797,426.041 283.0244,426.041 Q283.6553,426.041 284.2488,425.7712 Q284.8423,425.5015 285.4731,424.9204 Z "/><text fill="#000000" font-family="sans-serif" font-size="12" lengthAdjust="spacingAndGlyphs" textLength="17" x="296.5" y="426.5352">Fry</text><line style="stroke: #A80036; stroke-width: 1.5;" x1="268.5" x2="315.5" y1="438" y2="438"/><line style="stroke: #A80036; stroke-width: 1.5;" x1="268.5" x2="315.5" y1="446" y2="446"/><!--class Bake--><rect fill="#FEFECE" filter="url(#flpe7uxfkej3e)" height="48" id="Bake" style="stroke: #A80036; stroke-width: 1.5;" width="60" x="352" y="406"/><ellipse cx="367" cy="422" fill="#ADD1B2" rx="11" ry="11" style="stroke: #A80036; stroke-width: 1.0;"/><path d="M369.9731,427.6431 Q369.3921,427.9419 368.7529,428.0913 Q368.1138,428.2407 367.4082,428.2407 Q364.9014,428.2407 363.5815,426.5889 Q362.2617,424.937 362.2617,421.8159 Q362.2617,418.6865 363.5815,417.0347 Q364.9014,415.3828 367.4082,415.3828 Q368.1138,415.3828 368.7612,415.5322 Q369.4087,415.6816 369.9731,415.9805 L369.9731,418.7031 Q369.3423,418.1221 368.7488,417.8523 Q368.1553,417.5825 367.5244,417.5825 Q366.1797,417.5825 365.4949,418.6492 Q364.8101,419.7158 364.8101,421.8159 Q364.8101,423.9077 365.4949,424.9744 Q366.1797,426.041 367.5244,426.041 Q368.1553,426.041 368.7488,425.7712 Q369.3423,425.5015 369.9731,424.9204 Z "/><text fill="#000000" font-family="sans-serif" font-size="12" lengthAdjust="spacingAndGlyphs" textLength="28" x="381" y="426.5352">Bake</text><line style="stroke: #A80036; stroke-width: 1.5;" x1="353" x2="411" y1="438" y2="438"/><line style="stroke: #A80036; stroke-width: 1.5;" x1="353" x2="411" y1="446" y2="446"/><!--link PluginManager to PluginInfoChain--><path d="M325.1954,91.3285 C325.5787,139.0539 326.4251,244.4305 326.8067,291.9393 " fill="none" id="PluginManager-PluginInfoChain" style="stroke: #A80036; stroke-width: 1.0; stroke-dasharray: 7.0,7.0;"/><text fill="#000000" font-family="sans-serif" font-size="13" lengthAdjust="spacingAndGlyphs" textLength="128" x="327" y="199.0684">registers plugin info</text><!--link PluginManager to PluginInfo--><path d="M395.7797,82.0113 C421.7653,91.308 448.5762,106.2159 464,130 C496.329,179.8526 482.7017,254.13 472.479,291.9676 " fill="none" id="PluginManager-PluginInfo" style="stroke: #A80036; stroke-width: 1.0;"/><polygon fill="#FFFFFF" points="383.1429,77.8839,387.6045,83.5491,394.5499,81.6096,390.0883,75.9444,383.1429,77.8839" style="stroke: #A80036; stroke-width: 1.0;"/><!--link PluginManager to CuisineManager--><path d="M280.6487,104.3175 C270.8292,112.702 260.5165,121.6033 251,130 C241.2456,138.6066 230.8453,147.9961 221.1268,156.8656 " fill="none" id="PluginManager-CuisineManager" style="stroke: #A80036; stroke-width: 1.0;"/><polygon fill="none" points="276.2038,98.9087,295.9797,91.2986,285.2659,109.5801,276.2038,98.9087" style="stroke: #A80036; stroke-width: 1.0;"/><!--link Chef to Boost--><path d="M62.0066,244.3132 C69.1326,280.1851 80.325,329.2543 95,371 C99.1361,382.766 104.8875,395.3138 110.1023,405.7993 " fill="none" id="Chef-Boost" style="stroke: #A80036; stroke-width: 1.0;"/><polygon fill="none" points="55.1222,245.5808,58.2389,224.6217,68.8728,242.9499,55.1222,245.5808" style="stroke: #A80036; stroke-width: 1.0;"/><!--link PluginInfoChain to Boost--><path d="M283.7368,340.1765 C245.0238,361.8102 189.1869,393.0132 154.5465,412.3711 " fill="none" id="PluginInfoChain-Boost" style="stroke: #A80036; stroke-width: 1.0; stroke-dasharray: 7.0,7.0;"/><!--link Chef to Fry--><path d="M76.1936,242.6153 C98.4418,283.68 136.0226,340.5306 186,371 C204.0921,382.0301 213.8352,369.9613 233,379 C246.7153,385.4686 259.7227,396.0389 270.0164,405.8838 " fill="none" id="Chef-Fry" style="stroke: #A80036; stroke-width: 1.0;"/><polygon fill="none" points="69.9148,245.7129,66.9248,224.7353,82.344,239.2697,69.9148,245.7129" style="stroke: #A80036; stroke-width: 1.0;"/><!--link Chef to Bake--><path d="M99.1211,236.4825 C137.523,270.1638 194.8153,316.6282 251,348 C285.3813,367.1975 301.2044,357.204 334,379 C344.9366,386.2685 355.1885,396.4811 363.3868,405.8601 " fill="none" id="Chef-Bake" style="stroke: #A80036; stroke-width: 1.0;"/><polygon fill="none" points="94.4127,241.6629,84.1274,223.1368,103.7208,231.2053,94.4127,241.6629" style="stroke: #A80036; stroke-width: 1.0;"/><!--link PluginInfoChain to Fry--><path d="M319.5774,340.1765 C313.6378,359.5227 305.3487,386.5214 299.4119,405.8584 " fill="none" id="PluginInfoChain-Fry" style="stroke: #A80036; stroke-width: 1.0; stroke-dasharray: 7.0,7.0;"/><!--link PluginInfoChain to Bake--><path d="M338.6641,340.1765 C347.9978,359.5227 361.0235,386.5214 370.3527,405.8584 " fill="none" id="PluginInfoChain-Bake" style="stroke: #A80036; stroke-width: 1.0; stroke-dasharray: 7.0,7.0;"/><!--
@startuml

package lml {
  PluginManager .. PluginInfoChain : registers plugin info
  PluginManager o- - PluginInfo
}

package robotchef {
  class CuisineManager {
  + get_a_plugin()
  + raise_exception()
  }
  class Chef {
  + make()
  }
  PluginManager <|- -  CuisineManager
  package robotchef.robot_cuisine {
    Chef <|- - Boost
    PluginInfoChain .. Boost
  }
}

package robotchef_britishcuisine {
  Chef <|- - Fry
  Chef <|- - Bake
  PluginInfoChain .. Fry
  PluginInfoChain .. Bake
}


@enduml

PlantUML version 1.2017.13(Wed May 10 17:52:33 BST 2017)
(GPL source distribution)
Java Runtime: Java(TM) SE Runtime Environment
JVM: Java HotSpot(TM) 64-Bit Server VM
Java Version: 1.8.0_131-b11
Operating System: Mac OS X
OS Version: 10.11.6
Default Encoding: UTF-8
Language: en
Country: US
--></g></svg>